Coordinates
version=1
nRows=29
nColumns=24
inDegrees=yes

Units are S.I. units (second, meters, Newtons, ...)
Angles are in degrees.

endheader
time	pelvis_tilt	pelvis_list	pelvis_rotation	pelvis_tx	pelvis_ty	pelvis_tz	hip_flexion_r	hip_adduction_r	hip_rotation_r	knee_angle_r	ankle_angle_r	subtalar_angle_r	mtp_angle_r	hip_flexion_l	hip_adduction_l	hip_rotation_l	knee_angle_l	ankle_angle_l	subtalar_angle_l	mtp_angle_l	lumbar_extension	lumbar_bending	lumbar_rotation
      0.97466667	     -2.40020219	     -0.41834055	      1.76627851	     -0.09218447	      1.00324737	      0.29308974	    -12.87911591	      2.90200643	     -1.43615165	     -8.92647855	      7.76966347	     -5.03141433	      6.19410458	     20.30055203	      1.68551344	      3.86570824	      2.10363896	      0.71594092	     -2.87785649	      2.31758835	    -11.00238585	      5.27713178	      6.56968682
      0.97883333	     -2.40216663	     -0.35380539	      1.75289248	     -0.08644871	      1.00265592	      0.29266643	    -12.91101444	      2.78465644	     -1.53946100	     -9.54995835	      7.68533225	     -4.96822987	     11.10683221	     20.23749868	      1.83096636	      4.06803573	      2.03569319	      0.53148370	     -2.94050682	      3.60926782	    -10.98839285	      5.19111175	      6.52905130
      0.98300000	     -2.43462775	     -0.25811592	      1.71590612	     -0.08068280	      1.00205107	      0.29225622	    -12.86689549	      2.62313526	     -1.63790458	    -10.28034328	      7.74640813	     -4.73849330	     11.15677178	     20.19842611	      2.00292779	      4.25836408	      1.90325436	      0.34162499	     -3.01642374	      3.60662001	    -10.92900336	      5.07305935	      6.48058914
      0.98716667	     -2.45059407	     -0.16104239	      1.69483028	     -0.07492755	      1.00147495	      0.29180801	    -12.81367853	      2.45940400	     -1.77173016	    -11.06237454	      7.78909401	     -4.48199390	     11.25784280	     20.14735218	      2.18378527	      4.50251718	      1.70056499	      0.09977232	     -3.21784646	      3.61329811	    -10.88619863	      4.94707355	      6.41953286
      0.99133333	     -2.45854277	     -0.03855275	      1.67554894	     -0.06914785	      1.00093779	      0.29137067	    -12.75144200	      2.26944801	     -1.90143658	    -11.88002246	      7.80516832	     -4.24884848	     11.41047606	     20.08450325	      2.39011655	      4.75696737	      1.44324161	     -0.19751080	     -3.49114435	      3.62890418	    -10.85220983	      4.79122370	      6.34867777
      0.99550000	     -2.49435914	      0.08584292	      1.65388846	     -0.06336559	      1.00039031	      0.29092597	    -12.63389866	      2.07480150	     -2.01435166	    -12.74252978	      7.77891599	     -4.05520026	     11.61175662	     20.05753786	      2.59978340	      5.02383680	      1.12251901	     -0.53291168	     -3.82818559	      3.65263380	    -10.78658699	      4.63886918	      6.27791878
      0.99966667	     -2.49452787	      0.23556538	      1.63859037	     -0.05756414	      0.99991253	      0.29045885	    -12.53526894	      1.85142598	     -2.15143316	    -13.64254176	      7.72476542	     -3.85078430	     11.88054564	     19.98813260	      2.83791875	      5.29866366	      0.76554735	     -0.91452466	     -4.23852488	      3.68514233	    -10.76294821	      4.46057472	      6.19170337
      1.00383333	     -2.49204353	      0.38828381	      1.62471010	     -0.05175885	      0.99945105	      0.28999769	    -12.41864710	      1.62631500	     -2.27535227	    -14.57796586	      7.62457540	     -3.68093669	     12.20937700	     19.92050177	      3.07938470	      5.57685429	      0.36296049	     -1.32708686	     -4.69940678	      3.72471521	    -10.73887172	      4.26955205	      6.10123343
      1.00800000	     -2.51688943	      0.54471267	      1.60870431	     -0.04595400	      0.99897621	      0.28953729	    -12.24224892	      1.39482583	     -2.39055617	    -15.56641961	      7.47662140	     -3.55354757	     12.58387689	     19.89138122	      3.32517530	      5.83966282	     -0.08923930	     -1.75785914	     -5.19166954	      3.76743169	    -10.68286009	      4.07623512	      6.00892131
      1.01216667	     -2.52347571	      0.71387861	      1.59782954	     -0.04013868	      0.99855393	      0.28905405	    -12.06440688	      1.14728627	     -2.52152004	    -16.59017660	      7.28185970	     -3.41733534	     13.05611142	     19.84430876	      3.58700400	      6.10338210	     -0.57032575	     -2.22057476	     -5.75328342	      3.81651822	    -10.65051804	      3.87242038	      5.90663814
      1.01633333	     -2.49865160	      0.88440684	      1.59780235	     -0.03430336	      0.99820180	      0.28858182	    -11.92523440	      0.91012147	     -2.61926417	    -17.57181423	      6.85295490	     -3.55662065	     19.29515092	     19.77295329	      3.85190417	      6.36022229	     -1.09523546	     -2.66249701	     -6.33231275	      4.47602210	    -10.65579445	      3.66091631	      5.80711414
      1.02050000	     -2.51564783	      1.07086158	      1.57016932	     -0.02849587	      0.99779995	      0.28810816	    -11.66527023	      0.63196489	     -2.76030331	    -18.71923610	      6.58963727	     -3.39726101	     19.37500563	     19.76188201	      4.12471342	      6.50556617	     -1.66284545	     -3.08349723	     -6.76645287	      4.46689458	    -10.61368500	      3.43656566	      5.70161033
      1.02466667	     -2.50945485	      1.26736015	      1.54852643	     -0.02268063	      0.99745647	      0.28763714	    -11.41479808	      0.34857987	     -2.88737062	    -19.88428219	      6.23044057	     -3.34526748	     19.51781894	     19.71834218	      4.40912561	      6.69024058	     -2.22890602	     -3.52250949	     -7.32023780	      4.45670466	    -10.59274330	      3.19433727	      5.58932936
      1.02883333	     -2.49166917	      1.47325082	      1.52472250	     -0.01687385	      0.99715985	      0.28715770	    -11.14761712	      0.05129469	     -3.02030848	    -21.09053200	      5.80700506	     -3.30693055	     19.73226433	     19.66685108	      4.70330695	      6.86131198	     -2.81511204	     -3.94880017	     -7.89644989	      4.44504608	    -10.59001571	      2.94657233	      5.47471771
      1.03300000	     -2.48424021	      1.66564665	      1.50614058	     -0.01107481	      0.99686641	      0.28663441	    -10.84851681	     -0.23822138	     -3.15715746	    -22.31615135	      5.27746739	     -3.23416649	     20.33192715	     19.63217283	      4.99226730	      7.10083757	     -3.42873973	     -4.32046311	     -8.61853156	      4.42268435	    -10.58436540	      2.72615353	      5.36852466
      1.03716667	     -2.46612710	      1.87206781	      1.47380236	     -0.00529750	      0.99661612	      0.28618010	    -10.52496841	     -0.53871642	     -3.27060570	    -23.58552646	      4.63769197	     -3.42510521	     25.34555524	     19.60657278	      5.28122418	      7.17995538	     -4.08095959	     -4.66641553	     -9.06858604	      4.24860424	    -10.59103338	      2.47384458	      5.25045809
      1.04133333	     -2.44476083	      2.09798348	      1.42740434	      0.00046644	      0.99638056	      0.28571086	    -10.15858053	     -0.87723409	     -3.41007106	    -24.94600233	      4.04177547	     -3.39097078	     25.42752420	     19.58522473	      5.58784138	      7.22335027	     -4.75833011	     -4.92178423	     -9.48457908	      4.23752057	    -10.60192053	      2.20671088	      5.13433520
      1.04550000	     -2.42691434	      2.32363302	      1.37546549	      0.00621512	      0.99616596	      0.28524317	     -9.76023583	     -1.21831294	     -3.53507854	    -26.33874995	      3.34937938	     -3.43833571	     25.59104684	     19.56261012	      5.89391096	      7.29375812	     -5.43181703	     -5.14060578	     -9.95284395	      4.21805982	    -10.60937517	      1.94385403	      5.01915006
      1.04966667	     -2.39586533	      2.55738731	      1.31221913	      0.01196223	      0.99598597	      0.28479309	     -9.34192112	     -1.57612672	     -3.66840374	    -27.77847186	      2.57780669	     -3.53851412	     25.76296506	     19.52096351	      6.20102880	      7.32603057	     -6.09940692	     -5.26379636	    -10.31935672	      4.19780806	    -10.62156993	      1.66875290	      4.90412055
      1.05383333	     -2.27663114	      2.83792838	      1.22404870	      0.01771841	      0.99595692	      0.28432278	     -9.00160779	     -1.99941355	     -3.79977821	    -29.22516387	      1.72954256	     -3.60336509	     28.36026524	     19.34143714	      6.55905526	      7.46346314	     -6.68621763	     -5.49715577	    -11.02443237	      3.89367619	    -10.76450907	      1.35035932	      4.76087450
      1.05800000	     -2.27264635	      3.07280164	      1.16115798	      0.02340988	      0.99576857	      0.28387374	     -8.49242481	     -2.37061933	     -3.93848872	    -30.74002867	      0.81498847	     -3.74629412	     28.47785622	     19.36927396	      6.86654265	      7.40663894	     -7.45073458	     -5.36463958	    -11.14090624	      3.88216229	    -10.74407901	      1.08552679	      4.66529109
      1.06216667	     -2.20679829	      3.32468913	      1.06710129	      0.02909144	      0.99569548	      0.28346897	     -8.03365502	     -2.76235943	     -4.02311521	    -32.25252877	     -0.17952552	     -3.87763305	     28.56582576	     19.30891981	      7.18377933	      7.37902482	     -8.17696243	     -5.21639054	    -11.37164393	      3.87236839	    -10.82796351	      0.77449443	      4.55084140
      1.06633333	     -2.19978649	      3.57357877	      0.96167611	      0.03471279	      0.99552822	      0.28303139	     -7.45509310	     -3.17267783	     -4.12813902	    -33.85389713	     -1.15732112	     -4.01936673	     28.87793305	     19.31964920	      7.49901992	      7.32156668	     -8.90993329	     -5.09374811	    -11.67774274	      3.82170582	    -10.82013239	      0.51619425	      4.43537335
      1.07050000	     -2.05587915	      3.84017844	      0.85123707	      0.04037187	      0.99558595	      0.28261959	     -7.03776325	     -3.60102869	     -4.23465107	    -35.39574163	     -2.26184276	     -4.14752757	     28.94782807	     19.15765487	      7.82888256	      7.27878060	     -9.60662309	     -4.81120242	    -11.90346812	      3.81414743	    -10.99325455	      0.22365490	      4.32412908
      1.07466667	     -2.09731763	      4.08294372	      0.71132127	      0.04595271	      0.99539492	      0.28225995	     -6.35353852	     -4.00851022	     -4.26259754	    -37.03036618	     -3.39091012	     -4.39615638	     29.48533823	     19.20176348	      8.12194974	      7.20338475	    -10.30551498	     -4.50122723	    -12.08130070	      3.70398908	    -10.91737901	     -0.06133367	      4.20151056
      1.07883333	     -1.94299430	      4.39556814	      0.58742760	      0.05157720	      0.99549024	      0.28186758	     -5.89420618	     -4.50771033	     -4.38688974	    -38.62772611	     -4.53395621	     -4.59070879	     29.61236372	     18.99367087	      8.49141252	      7.13345915	    -10.92022392	     -4.20028835	    -12.23311868	      3.67805667	    -11.09970477	     -0.41212387	      4.07307888
      1.08300000	     -1.86208361	      4.64404323	      0.42812674	      0.05710875	      0.99547545	      0.28156988	     -5.32118431	     -4.92516206	     -4.39659019	    -40.22929825	     -5.72547010	     -4.89877044	     32.38741484	     18.93238143	      8.77071003	      6.86342094	    -11.67644678	     -3.62063489	    -12.03806065	      2.87212502	    -11.19779344	     -0.68629005	      3.94997449
      1.08716667	     -1.77323600	      4.93776368	      0.29321918	      0.06267279	      0.99551312	      0.28115452	     -4.74976383	     -5.41675757	     -4.48228758	    -41.83239239	     -6.93886010	     -5.10273650	     32.40884898	     18.75793704	      9.12785724	      6.87935709	    -12.21308587	     -3.30184969	    -12.34207654	      2.86429025	    -11.28014503	     -1.00471199	      3.82474552
      1.09133333	     -1.66346079	      5.22311919	      0.13433769	      0.06818709	      0.99559032	      0.28080723	     -4.18273840	     -5.89486207	     -4.51649799	    -43.42626313	     -8.11860720	     -5.33336579	     32.41387115	     18.56899088	      9.46202122	      6.80497183	    -12.75844710	     -2.91477414	    -12.54156563	      2.85415136	    -11.40325375	     -1.30558216	      3.69031833
